HIERARCHY
ROOT root
{
	OFFSET -0.077679 0.000000 0.863643
	CHANNELS 6 Xposition Yposition Zposition Xrotation Yrotation Zrotation
	JOINT spine1
	{
		OFFSET 0.084075 0.000000 0.098215
		CHANNELS 3 Xrotation Yrotation Zrotation
		JOINT spine2
		{
			OFFSET 0.004518 0.000000 0.238221
			CHANNELS 6 Xposition Yposition Zposition Xrotation Yrotation Zrotation
			JOINT chest
			{
				OFFSET -0.000153 0.000000 0.205591
				CHANNELS 6 Xposition Yposition Zposition Xrotation Yrotation Zrotation
				JOINT l_shoulder
				{
					OFFSET 0.011130 0.000000 0.203436
					CHANNELS 3 Xrotation Yrotation Zrotation
					JOINT l_arm1
					{
						OFFSET -0.023968 0.201341 -0.039879
						CHANNELS 6 Xposition Yposition Zposition Xrotation Yrotation Zrotation
						JOINT l_arm2
						{
							OFFSET 0.002834 0.255826 -0.019338
							CHANNELS 6 Xposition Yposition Zposition Xrotation Yrotation Zrotation
							JOINT l_arm2.001
							{
								OFFSET 0.000000 0.278303 0.000000
								CHANNELS 6 Xposition Yposition Zposition Xrotation Yrotation Zrotation
								JOINT l_arm2.002
								{
									OFFSET 0.000000 0.097545 0.027868
									CHANNELS 6 Xposition Yposition Zposition Xrotation Yrotation Zrotation
									JOINT l_arm2.003
									{
										OFFSET 0.000000 0.073227 -0.001151
										CHANNELS 6 Xposition Yposition Zposition Xrotation Yrotation Zrotation
										End Site
										{
											OFFSET 0.000000 0.069050 -0.006363
										}
									}
								}
								JOINT l_thumb1
								{
									OFFSET 0.036186 0.069959 -0.025989
									CHANNELS 6 Xposition Yposition Zposition Xrotation Yrotation Zrotation
									JOINT l_thumb2
									{
										OFFSET 0.020316 0.016822 -0.014415
										CHANNELS 6 Xposition Yposition Zposition Xrotation Yrotation Zrotation
										JOINT l_thumb3
										{
											OFFSET 0.007269 0.030947 -0.011068
											CHANNELS 6 Xposition Yposition Zposition Xrotation Yrotation Zrotation
											End Site
											{
												OFFSET 0.004416 0.030806 0.000000
											}
										}
									}
								}
							}
						}
					}
				}
				JOINT neck
				{
					OFFSET 0.011130 0.000000 0.203436
					CHANNELS 3 Xrotation Yrotation Zrotation
					JOINT Chest.002
					{
						OFFSET -0.034927 0.000000 0.167239
						CHANNELS 6 Xposition Yposition Zposition Xrotation Yrotation Zrotation
						End Site
						{
							OFFSET 0.000000 0.000000 0.197672
						}
					}
				}
				JOINT r_shoulder
				{
					OFFSET 0.011130 0.000000 0.203436
					CHANNELS 3 Xrotation Yrotation Zrotation
					JOINT r_arm1
					{
						OFFSET -0.023968 -0.201341 -0.039879
						CHANNELS 6 Xposition Yposition Zposition Xrotation Yrotation Zrotation
						JOINT r_arm2
						{
							OFFSET 0.002834 -0.255826 -0.019338
							CHANNELS 6 Xposition Yposition Zposition Xrotation Yrotation Zrotation
							JOINT r_arm2.001
							{
								OFFSET 0.000000 -0.278303 0.000000
								CHANNELS 6 Xposition Yposition Zposition Xrotation Yrotation Zrotation
								JOINT r_arm2.002
								{
									OFFSET 0.000873 -0.097759 0.028598
									CHANNELS 6 Xposition Yposition Zposition Xrotation Yrotation Zrotation
									JOINT r_arm2.003
									{
										OFFSET 0.000000 -0.073227 -0.001151
										CHANNELS 6 Xposition Yposition Zposition Xrotation Yrotation Zrotation
										End Site
										{
											OFFSET 0.000000 -0.069050 -0.006363
										}
									}
								}
								JOINT r_thumb1
								{
									OFFSET 0.036186 -0.069959 -0.025989
									CHANNELS 6 Xposition Yposition Zposition Xrotation Yrotation Zrotation
									JOINT r_thumb2
									{
										OFFSET 0.020316 -0.016822 -0.014415
										CHANNELS 6 Xposition Yposition Zposition Xrotation Yrotation Zrotation
										JOINT r_thumb3
										{
											OFFSET 0.007269 -0.030947 -0.011068
											CHANNELS 6 Xposition Yposition Zposition Xrotation Yrotation Zrotation
											End Site
											{
												OFFSET 0.004416 -0.030806 0.000000
											}
										}
									}
								}
							}
						}
					}
				}
			}
		}
	}
	JOINT l_hip
	{
		OFFSET 0.084075 0.000000 0.098215
		CHANNELS 3 Xrotation Yrotation Zrotation
		JOINT l_leg1
		{
			OFFSET -0.008190 0.093423 -0.082916
			CHANNELS 6 Xposition Yposition Zposition Xrotation Yrotation Zrotation
			JOINT l_leg2
			{
				OFFSET 0.010576 0.000000 -0.363962
				CHANNELS 6 Xposition Yposition Zposition Xrotation Yrotation Zrotation
				JOINT l_foot
				{
					OFFSET -0.010576 0.000000 -0.485475
					CHANNELS 6 Xposition Yposition Zposition Xrotation Yrotation Zrotation
					End Site
					{
						OFFSET 0.212586 -0.012401 -0.015962
					}
				}
			}
		}
	}
	JOINT r_hip
	{
		OFFSET 0.084075 0.000000 0.098215
		CHANNELS 3 Xrotation Yrotation Zrotation
		JOINT r_leg1
		{
			OFFSET -0.008190 -0.093423 -0.082916
			CHANNELS 6 Xposition Yposition Zposition Xrotation Yrotation Zrotation
			JOINT r_leg2
			{
				OFFSET 0.010576 0.000000 -0.363962
				CHANNELS 6 Xposition Yposition Zposition Xrotation Yrotation Zrotation
				JOINT r_foot
				{
					OFFSET -0.010576 0.000000 -0.485475
					CHANNELS 6 Xposition Yposition Zposition Xrotation Yrotation Zrotation
					End Site
					{
						OFFSET 0.212586 0.012401 -0.015962
					}
				}
			}
		}
	}
}
MOTION
Frames: 4
Frame Time: 0.041667
-0.077679 0.000000 0.863643 -0.000000 -0.000001 -0.000002 -0.000000 -0.000001 -0.000002 0.004518 0.000000 0.238221 0.000000 -0.000000 0.000000 -0.000153 0.000000 0.205591 -0.000000 0.000000 -0.000000 0.000001 0.000000 -0.000000 -0.023968 0.201341 -0.039879 4.329604 -0.047713 0.003610 0.002834 0.255826 -0.019338 0.000001 -0.000000 -0.000000 -0.000000 0.278303 0.000000 0.000000 0.000000 -0.000000 0.000000 0.097545 0.027868 -0.000000 0.000000 -0.000000 -0.000000 0.073227 -0.001151 0.000000 -0.000000 0.000000 0.036186 0.069959 -0.025989 0.000001 -0.000001 -0.000007 0.020316 0.016822 -0.014415 -0.000002 0.000002 -0.000000 0.007269 0.030947 -0.011068 0.000003 -0.000000 -0.000004 0.829284 16.065288 -21.474373 -0.034927 0.000000 0.167239 0.000001 0.000000 21.529055 -0.000000 0.000001 -0.000000 -0.023968 -0.201341 -0.039879 -1.739902 18.158014 3.795695 0.002834 -0.255826 -0.019338 -0.000000 -0.000002 0.000000 -0.000000 -0.278303 -0.000000 -0.000000 -0.000002 -0.000002 0.000873 -0.097759 0.028598 -0.000000 0.000000 0.000001 -0.000000 -0.073227 -0.001151 -0.000000 -0.000002 -0.000001 0.036186 -0.069959 -0.025989 -0.000003 0.000002 -0.000001 0.020316 -0.016822 -0.014415 0.000004 -0.000006 0.000001 0.007269 -0.030947 -0.011068 -0.000003 0.000002 -0.000000 0.000002 -0.000001 -0.000001 -0.008190 0.093423 -0.082916 0.000002 0.000000 0.000000 0.010576 0.000000 -0.363962 -0.000000 -0.000000 0.000000 -0.010576 -0.000000 -0.485475 0.000001 -0.000000 0.000000 0.000001 -0.000001 -0.000002 -0.008190 -0.093423 -0.082916 0.000001 -0.000000 -0.000000 0.010576 0.000000 -0.363962 -0.000000 0.000000 -0.000000 -0.010576 0.000000 -0.485475 0.000000 -0.000000 -0.000000 
-0.077679 0.000000 0.863643 -0.000000 -0.000001 -0.000002 0.044807 0.506985 -0.008937 0.004518 0.000000 0.238221 -0.001782 2.393611 0.000036 -0.000153 0.000000 0.205591 0.028424 0.520175 -0.001684 0.000001 -0.000001 -0.000001 -0.023968 0.201341 -0.039879 2.454631 -4.592613 -5.982221 0.002834 0.255826 -0.019338 -2.905240 1.201440 -6.319502 0.000000 0.278303 0.000000 1.107998 -4.209160 -2.931083 0.000000 0.097545 0.027868 -4.414329 -1.490563 0.880494 0.000000 0.073227 -0.001151 -5.629398 -1.717453 -1.855013 0.036186 0.069959 -0.025989 0.000003 -0.000003 -0.000004 0.020316 0.016822 -0.014415 -0.000002 -0.000002 -0.000002 0.007269 0.030947 -0.011068 0.000000 0.000001 -0.000002 0.829284 16.065285 -21.474369 -0.034927 0.000000 0.167239 1.193797 -4.788750 22.114175 0.000000 -0.000001 0.000000 -0.023968 -0.201341 -0.039879 -1.564600 18.167130 3.790937 0.002834 -0.255826 -0.019338 -5.954935 -0.865348 8.238432 -0.000000 -0.278303 -0.000000 0.000000 -0.000003 0.000000 0.000873 -0.097759 0.028598 3.247220 -0.000003 -0.000004 -0.000000 -0.073227 -0.001151 10.718714 -0.000000 -0.000000 0.036186 -0.069959 -0.025989 -1.524715 1.261035 -2.211139 0.020316 -0.016822 -0.014415 0.000002 -0.000003 0.000002 0.007269 -0.030947 -0.011068 -0.000002 0.000001 0.000002 0.000002 -0.000001 -0.000001 -0.008190 0.093423 -0.082916 2.719518 -3.329972 0.237851 0.010576 0.000000 -0.363962 -2.490363 4.558271 0.249274 -0.010576 -0.000000 -0.485475 1.327798 -0.364637 1.508753 0.000001 -0.000001 -0.000002 -0.008190 -0.093423 -0.082916 -1.614019 -3.705665 0.988767 0.010576 0.000000 -0.363962 2.209470 2.961592 1.295900 -0.010576 0.000000 -0.485475 0.269133 1.952179 -1.730702 
-0.077679 0.000000 0.863643 -0.000000 -0.000001 -0.000002 0.151717 1.715906 -0.033103 0.004518 -0.000000 0.238221 -0.006068 8.101452 0.000425 -0.000153 0.000000 0.205591 0.096290 1.760585 -0.006742 0.000001 0.000000 0.000000 -0.023968 0.201341 -0.039879 -5.541089 -13.348235 -21.676734 0.002834 0.255826 -0.019338 -8.471760 6.454503 -20.827233 -0.000000 0.278303 0.000000 2.038882 -14.567450 -9.214061 0.000000 0.097545 0.027868 -14.784727 -5.501593 2.013058 0.000000 0.073227 -0.001151 -19.457156 -4.180451 -7.463024 0.036186 0.069959 -0.025989 0.000004 -0.000004 -0.000008 0.020316 0.016822 -0.014415 0.000001 0.000000 -0.000001 0.007269 0.030947 -0.011068 0.000001 0.000000 0.000001 0.829284 16.065285 -21.474367 -0.034927 0.000000 0.167239 4.155568 -16.088651 24.368303 -0.000000 -0.000001 -0.000001 -0.023968 -0.201341 -0.039879 -1.146536 18.188814 3.779471 0.002834 -0.255826 -0.019338 -18.141911 -9.414684 26.529875 -0.000000 -0.278303 -0.000000 0.000000 -0.000001 0.000002 0.000873 -0.097759 0.028598 10.990592 0.000001 -0.000013 -0.000000 -0.073227 -0.001151 36.278724 0.000003 0.000001 0.036186 -0.069959 -0.025989 -4.855106 4.340359 -7.602275 0.020316 -0.016822 -0.014415 0.000006 -0.000003 0.000001 0.007269 -0.030947 -0.011068 0.000000 0.000003 -0.000005 0.000002 -0.000001 -0.000001 -0.008190 0.093423 -0.082916 9.368028 -11.119089 2.101069 0.010576 -0.000000 -0.363962 -8.708669 15.268253 2.461094 -0.010576 0.000000 -0.485475 4.573595 -0.960924 5.078268 0.000001 -0.000001 -0.000002 -0.008190 -0.093423 -0.082916 -5.583805 -12.725149 2.504608 0.010576 -0.000000 -0.363962 7.558955 10.398584 3.432910 -0.010576 0.000000 -0.485475 1.378920 6.520054 -5.868017 
-0.077679 0.000000 0.863643 -0.000000 -0.000001 -0.000002 0.279588 3.158716 -0.067230 0.004518 -0.000000 0.238221 -0.011353 14.914039 0.001478 -0.000153 0.000000 0.205591 0.177519 3.241069 -0.014712 0.000002 0.000001 0.000000 -0.023968 0.201341 -0.039879 -20.295241 -17.623703 -42.943134 0.002834 0.255826 -0.019338 -11.448560 15.967920 -37.195687 0.000000 0.278303 -0.000000 -0.002639 -26.944857 -16.124159 -0.000000 0.097545 0.027868 -27.045046 -10.678405 1.432532 -0.000000 0.073227 -0.001151 -36.289171 -3.519858 -15.311655 0.036186 0.069959 -0.025989 0.000003 0.000003 0.000002 0.020316 0.016822 -0.014415 -0.000000 -0.000001 -0.000001 0.007269 0.030947 -0.011068 0.000000 -0.000003 -0.000003 0.829285 16.065288 -21.474371 -0.034927 -0.000000 0.167239 8.338760 -29.244104 28.830409 0.000000 -0.000003 -0.000000 -0.023968 -0.201341 -0.039879 -0.647481 18.214588 3.765566 0.002834 -0.255826 -0.019338 -25.471234 -28.494711 45.043178 -0.000000 -0.278303 -0.000000 -0.000000 -0.000002 0.000003 0.000873 -0.097759 0.028598 20.232680 -0.000003 -0.000030 0.000000 -0.073227 -0.001151 66.785801 -0.000000 0.000003 0.036186 -0.069959 -0.025989 -8.232053 8.105458 -14.290053 0.020316 -0.016822 -0.014415 -0.000000 -0.000005 0.000004 0.007269 -0.030947 -0.011068 0.000003 0.000000 -0.000001 0.000002 -0.000001 -0.000001 -0.008190 0.093423 -0.082916 18.021512 -19.756631 6.814861 0.010576 0.000000 -0.363962 -17.440658 27.307559 8.433174 -0.010576 -0.000000 -0.485475 8.550424 -1.163077 9.250537 0.000001 -0.000001 -0.000002 -0.008190 -0.093423 -0.082916 -10.908421 -23.681767 2.581107 0.010576 -0.000000 -0.363962 14.409537 19.736241 4.055876 -0.010576 0.000000 -0.485475 3.561453 11.732800 -10.905371 
